<?xml version="1.0" encoding="utf-8"?>
<!-- Generator: Adobe Illustrator 24.1.2, SVG Export Plug-In . SVG Version: 6.00 Build 0)  -->
<svg version="1.1" id="Layer_1" xmlns="http://www.w3.org/2000/svg" xmlns:xlink="http://www.w3.org/1999/xlink" x="0px" y="0px"
	 viewBox="0 0 1000 1000" style="enable-background:new 0 0 1000 1000;" xml:space="preserve">
<style type="text/css">
	.st0{fill:#2E5AA9;}
	.st1{fill:#F15A26;}
	.st2{fill:#B3B4B4;}
</style>
<g>
	<g>
		<g>
			<path class="st0" d="M469.89,512.86c0,8.04-2.86,14.5-8.57,19.38c-5.47,4.56-12.3,6.83-20.5,6.83h-64.74v-14.79h64.74
				c4.06,0,7.58-0.91,10.56-2.73c3.4-2.24,5.09-5.26,5.09-9.07c0-3.81-1.74-6.75-5.22-8.82c-2.9-1.74-6.38-2.61-10.44-2.61h-40.01
				c-7.37,0-13.54-2.03-18.51-6.09c-5.3-4.39-7.95-10.19-7.95-17.4c0-7.12,2.65-12.88,7.95-17.27c4.97-4.06,11.14-6.09,18.51-6.09
				h63.99V469h-63.99c-2.82,0-5.22,0.79-7.21,2.36c-1.99,1.57-2.98,3.69-2.98,6.34c0,2.73,0.99,4.85,2.98,6.34
				c1.99,1.49,4.39,2.24,7.21,2.24h40.01c8.2,0,15.04,2.36,20.5,7.08C467.04,498.32,469.89,504.83,469.89,512.86z"/>
			<path class="st0" d="M604.47,539.2h-16.65l-12.3-59.4l-28.46,54.8c-1.91,3.73-4.56,5.59-7.95,5.59c-3.81,0-6.71-1.9-8.7-5.72
				l-28.46-54.67l-12.18,59.4H473l19.01-77.91c0.5-2.24,1.59-4.18,3.29-5.84c1.7-1.66,3.67-2.49,5.9-2.49c3.23,0,6.29,2.78,9.2,8.33
				l28.33,55.54l28.46-55.54c2.9-5.55,5.96-8.33,9.2-8.33c2.15,0,4.14,0.87,5.96,2.61c1.57,1.57,2.65,3.48,3.23,5.72L604.47,539.2z"
				/>
			<path class="st0" d="M706.23,512.86c0,8.04-2.86,14.5-8.57,19.38c-5.47,4.56-12.3,6.83-20.5,6.83h-64.74v-14.79h64.74
				c4.06,0,7.58-0.91,10.56-2.73c3.4-2.24,5.09-5.26,5.09-9.07c0-3.81-1.74-6.75-5.22-8.82c-2.9-1.74-6.38-2.61-10.44-2.61h-40.01
				c-7.37,0-13.54-2.03-18.51-6.09c-5.3-4.39-7.95-10.19-7.95-17.4c0-7.12,2.65-12.88,7.95-17.27c4.97-4.06,11.14-6.09,18.51-6.09
				h63.99V469h-63.99c-2.82,0-5.22,0.79-7.21,2.36c-1.99,1.57-2.98,3.69-2.98,6.34c0,2.73,0.99,4.85,2.98,6.34
				c1.99,1.49,4.39,2.24,7.21,2.24h40.01c8.2,0,15.04,2.36,20.5,7.08C703.38,498.32,706.23,504.83,706.23,512.86z"/>
			<path class="st1" d="M757.55,503.54h-46.1v-14.66h46.1V503.54z"/>
			<path class="st1" d="M788.74,539.08h-14.79v-84.87h14.79V539.08z"/>
		</g>
	</g>
	<g>
		<g>
			<path class="st2" d="M299.14,519.17h-43.83c-3.33,0-6.04-2.71-6.04-6.04v-23.34l-9.34-7.41v30.76c0,8.48,6.9,15.38,15.38,15.38
				h43.83V519.17z"/>
			<path class="st1" d="M314.63,441.67h-59.12c-8.59,0-15.57,6.99-15.57,15.57v21.34h9.34v-21.34c0-3.44,2.8-6.23,6.23-6.23h62.47
				l21.87-17.97l0,80.09c0,3.33-2.71,6.04-6.04,6.04h-29.69v9.34h29.69c8.48,0,15.38-6.9,15.38-15.38l0.01-99.84L314.63,441.67z"/>
		</g>
		<g>
			<path class="st0" d="M304.09,490.17v52.59c0,3.44-2.8,6.23-6.23,6.23h-62.47l-21.87,17.97l0-80.09c0-3.33,2.71-6.04,6.04-6.04
				h26.31l30.62,23.37l27.1-19.74c0,0.01,0.01,0.02,0.02,0.03l7.62-5.51c-2.69-4.48-7.58-7.49-13.17-7.49h-78.49
				c-8.48,0-15.38,6.9-15.38,15.38l0,99.84l34.55-28.39h59.12c8.59,0,15.57-6.98,15.57-15.57v-55.89c0-1-0.1-1.97-0.29-2.92
				L304.09,490.17z M260.72,480.83h32.45l-16.63,12.33L260.72,480.83z"/>
			<path class="st0" d="M321.28,459.96h-32.63v1.99c0,2.33,1.89,4.22,4.22,4.22h23.6c1.47,0,2.66,1.19,2.66,2.66v20.38
				c0,2.33,1.89,4.22,4.22,4.22h1.99v-29.42C325.33,461.78,323.52,459.96,321.28,459.96z"/>
		</g>
	</g>
</g>
</svg>
